<?xml version="1.0" encoding="UTF-8"?>
<svg version="1.1" xmlns="http://www.w3.org/2000/svg" width="512" height="512">
<path d="M0 0 C1.12873535 0.20882812 1.12873535 0.20882812 2.28027344 0.421875 C24.69244095 4.69651357 47.55116161 13.21292562 62.09765625 31.66015625 C76.79620159 53.34909258 70.71394987 79.39664372 67.12607598 103.73897386 C66.57139007 107.52115989 66.03272292 111.30563593 65.49150085 115.08976746 C64.58181862 121.43247414 63.65967231 127.77327031 62.72973633 134.11303711 C61.66204235 141.39302604 60.61442526 148.67569132 59.57742816 155.96011144 C58.56926572 163.03858707 57.5467953 170.11492763 56.51802635 177.19043541 C56.08495897 180.17058317 55.65669544 183.15135863 55.23256874 186.13279152 C49.77087485 224.43433037 49.77087485 224.43433037 40.9375 240.5625 C40.46779785 241.43817627 39.9980957 242.31385254 39.51416016 243.21606445 C32.60287289 255.75061599 23.72814535 266.55682656 14 277 C12.78661781 278.39144666 11.57802197 279.78708639 10.375 281.1875 C4.715125 287.66708103 -1.4660583 293.41664848 -8 299 C-8.93585938 299.81339844 -9.87171875 300.62679688 -10.8359375 301.46484375 C-37.22617348 324.265308 -67.16694654 342.85270127 -98 359 C-99.03946777 359.54769043 -100.07893555 360.09538086 -101.14990234 360.65966797 C-181.09642592 402.52618001 -283.09910836 435.08916568 -388.71875 413.74316406 C-407.48355572 407.63014302 -425.90925491 397.55145556 -436 380 C-445.89566597 359.30357666 -440.34014342 335.13729348 -437.09314442 313.36416054 C-436.5348717 309.60067004 -435.99325403 305.83477493 -435.44915771 302.06921387 C-434.53515297 295.76100002 -433.60898197 289.45467033 -432.67480469 283.14941406 C-431.60083443 275.89983366 -430.5448031 268.64781561 -429.49857926 261.39418268 C-428.4826236 254.35235213 -427.45562404 247.31217709 -426.42314911 240.27275085 C-425.98779622 237.30390355 -425.55588487 234.33458744 -425.12683868 231.36482239 C-424.62034187 227.86333597 -424.10397601 224.36343322 -423.58045959 220.86445236 C-423.30301472 218.99560612 -423.03473464 217.12540616 -422.76690674 215.25515747 C-418.50841449 187.10878424 -405.10886722 163.92776545 -386.0859375 143.26953125 C-384.15845324 141.1723995 -382.29238643 139.03623645 -380.4375 136.875 C-360.53906122 114.08807818 -334.58151145 95.84136186 -309 80 C-308.20207031 79.50564453 -307.40414062 79.01128906 -306.58203125 78.50195312 C-290.82869397 68.81792486 -274.51990283 60.28031087 -258 52 C-257.04206543 51.51901855 -256.08413086 51.03803711 -255.09716797 50.54248047 C-201.73768162 23.94588223 -143.08772812 6.51991449 -84 -1 C-83.11344727 -1.11859375 -82.22689453 -1.2371875 -81.31347656 -1.359375 C-54.91059168 -4.79123934 -26.17066502 -5.04494747 0 0 Z " fill="#D07400" transform="translate(441,47)"/>
<path d="M0 0 C0.73701141 -0.00100708 1.47402283 -0.00201416 2.23336792 -0.00305176 C15.53640469 0.00913954 28.50602704 0.92655885 41.625 3.25 C42.79603271 3.45085205 42.79603271 3.45085205 43.99072266 3.65576172 C63.61434358 7.17292167 81.20615997 15.26622236 93.625 31.25 C99.1688019 40.5492806 98.82176732 52.11914538 96.4375 62.4375 C94.7610258 68.34432966 92.38545993 73.77667427 89.625 79.25 C89.21765625 80.09820312 88.8103125 80.94640625 88.390625 81.8203125 C81.47357363 95.45097254 71.22733211 107.35678083 60.625 118.25 C60.04314941 118.85231445 59.46129883 119.45462891 58.86181641 120.07519531 C51.16554835 128.0141656 43.33893248 135.42408622 34.625 142.25 C33.60142383 143.10610625 32.58073097 143.96566817 31.5625 144.828125 C-30.47171071 196.81204978 -116.86623138 232.52599024 -196.375 246.25 C-197.80392578 246.50475098 -197.80392578 246.50475098 -199.26171875 246.76464844 C-243.77681409 254.64456128 -304.95587075 261.67069418 -344.4375 234.3125 C-352.55023119 227.95387285 -358.24569233 221.57967708 -360.375 211.25 C-362.59022954 186.50487914 -350.69089739 166.26958253 -335.4140625 147.66015625 C-324.18856124 134.39169978 -312.07832445 121.96042804 -298.375 111.25 C-297.25821686 110.33470876 -296.1437653 109.41656772 -295.03125 108.49609375 C-274.27788342 91.4170382 -251.19953945 77.1633539 -227.56689453 64.43408203 C-225.41109828 63.26950063 -223.26603928 62.08676309 -221.12109375 60.90234375 C-182.67514717 39.91776584 -140.55654371 23.85236857 -97.96972656 13.86572266 C-94.96748515 13.15329766 -91.97994237 12.39176716 -88.99243164 11.62036133 C-85.79395128 10.7993978 -82.58546531 10.02258922 -79.375 9.25 C-78.70388184 9.08790039 -78.03276367 8.92580078 -77.34130859 8.75878906 C-66.66962 6.22602189 -55.93093762 4.51867464 -45.0625 3.0625 C-43.20407471 2.81209961 -43.20407471 2.81209961 -41.30810547 2.55664062 C-27.54986136 0.77807788 -13.86267888 0.01332517 0 0 Z " fill="#FEEA99" transform="translate(397.375,60.75)"/>
<path d="M0 0 C0.73701141 -0.00100708 1.47402283 -0.00201416 2.23336792 -0.00305176 C15.53640469 0.00913954 28.50602704 0.92655885 41.625 3.25 C42.79603271 3.45085205 42.79603271 3.45085205 43.99072266 3.65576172 C63.61434358 7.17292167 81.20615997 15.26622236 93.625 31.25 C99.1688019 40.5492806 98.82176732 52.11914538 96.4375 62.4375 C94.7610258 68.34432966 92.38545993 73.77667427 89.625 79.25 C89.21765625 80.09820312 88.8103125 80.94640625 88.390625 81.8203125 C81.47357363 95.45097254 71.22733211 107.35678083 60.625 118.25 C60.04314941 118.85231445 59.46129883 119.45462891 58.86181641 120.07519531 C51.16554835 128.0141656 43.33893248 135.42408622 34.625 142.25 C33.60142383 143.10610625 32.58073097 143.96566817 31.5625 144.828125 C-30.47171071 196.81204978 -116.86623138 232.52599024 -196.375 246.25 C-197.80392578 246.50475098 -197.80392578 246.50475098 -199.26171875 246.76464844 C-243.77681409 254.64456128 -304.95587075 261.67069418 -344.4375 234.3125 C-352.55023119 227.95387285 -358.24569233 221.57967708 -360.375 211.25 C-362.59022954 186.50487914 -350.69089739 166.26958253 -335.4140625 147.66015625 C-324.18856124 134.39169978 -312.07832445 121.96042804 -298.375 111.25 C-297.25821686 110.33470876 -296.1437653 109.41656772 -295.03125 108.49609375 C-274.27788342 91.4170382 -251.19953945 77.1633539 -227.56689453 64.43408203 C-225.41109828 63.26950063 -223.26603928 62.08676309 -221.12109375 60.90234375 C-182.67514717 39.91776584 -140.55654371 23.85236857 -97.96972656 13.86572266 C-94.96748515 13.15329766 -91.97994237 12.39176716 -88.99243164 11.62036133 C-85.79395128 10.7993978 -82.58546531 10.02258922 -79.375 9.25 C-78.70388184 9.08790039 -78.03276367 8.92580078 -77.34130859 8.75878906 C-66.66962 6.22602189 -55.93093762 4.51867464 -45.0625 3.0625 C-43.20407471 2.81209961 -43.20407471 2.81209961 -41.30810547 2.55664062 C-27.54986136 0.77807788 -13.86267888 0.01332517 0 0 Z M-3.375 16.25 C-4.63054687 16.60835937 -5.88609375 16.96671875 -7.1796875 17.3359375 C-9.54722402 18.01310386 -11.91442859 18.6914322 -14.28125 19.37109375 C-20.81452723 21.22713842 -26.7528316 22.32319675 -33.5625 22.6875 C-47.91573006 23.55782508 -60.22142898 27.80662877 -73.375 33.25 C-73.375 34.24 -73.375 35.23 -73.375 36.25 C-72.715 36.25 -72.055 36.25 -71.375 36.25 C-73.11810252 38.36007147 -74.23837925 39.20559826 -76.875 40.0625 C-79.375 40.25 -79.375 40.25 -82.375 38.25 C-86.4965185 38.50233787 -90.07614879 39.43697181 -94 40.6875 C-103.40832646 43.57046999 -112.84385031 44.34979795 -122.625 44.75 C-153.30620044 46.03659566 -175.69742636 53.51929736 -197.375 76.375 C-200.77537419 79.84118788 -204.45207509 82.81845209 -208.3125 85.75 C-208.85455078 86.17684082 -209.39660156 86.60368164 -209.95507812 87.04345703 C-222.98999431 96.67497251 -238.94054657 101.34159539 -254.25 105.9375 C-270.16538892 110.66147493 -270.16538892 110.66147493 -285.375 117.25 C-286.23279053 117.67780762 -287.09058105 118.10561523 -287.97436523 118.54638672 C-296.0500521 122.70354828 -301.57718238 129.44351543 -307.375 136.25 C-308.18195313 137.19617188 -308.98890625 138.14234375 -309.8203125 139.1171875 C-312.04898914 141.79625872 -314.22234318 144.50954719 -316.375 147.25 C-317.16003906 148.24 -317.94507813 149.23 -318.75390625 150.25 C-328.33670148 162.52031937 -328.33670148 162.52031937 -330.79296875 177.4609375 C-328.93509222 189.85835656 -321.98354693 201.31419606 -312.375 209.25 C-307.29637214 212.36502883 -302.13484257 212.02979407 -296.375 211.25 C-289.54672477 209.42681145 -282.95193674 206.81560771 -276.375 204.25 C-275.70662109 203.98928711 -275.03824219 203.72857422 -274.34960938 203.45996094 C-272.6286633 202.78642773 -270.90806918 202.11199543 -269.1875 201.4375 C-261.86252817 198.58629457 -255.2458524 196.91507011 -247.375 197.25 C-247.15585938 197.98605469 -246.93671875 198.72210938 -246.7109375 199.48046875 C-244.64212922 205.8466796 -243.07484126 209.61180345 -237.375 213.25 C-230.22830428 215.63223191 -223.91088498 213.84711008 -217 211.625 C-215.69180298 211.22112061 -215.69180298 211.22112061 -214.35717773 210.80908203 C-210.14768787 209.49749842 -205.96659231 208.12281321 -201.80859375 206.65625 C-185.53509257 200.9279051 -169.12244326 198.37595058 -152.03442383 196.31469727 C-136.38364326 194.42909674 -136.38364326 194.42909674 -121.109375 190.64453125 C-106.28973088 186.03075044 -92.09609957 183.88902446 -76.6730957 182.58032227 C-56.35884294 180.832462 -41.95893129 175.79159767 -27.375 161.25 C-26.53066406 160.42113281 -25.68632812 159.59226563 -24.81640625 158.73828125 C-16.14193707 149.89726226 -9.50505377 140.08810778 -2.91699219 129.66699219 C-0.08120493 125.22204383 2.83146984 120.82840651 5.75 116.4375 C6.64054077 115.09425659 6.64054077 115.09425659 7.54907227 113.72387695 C10.81284379 108.83795618 14.18933583 104.12468922 17.8125 99.5 C25.25896771 89.65903617 25.65957612 80.18193071 24.390625 68 C24.25914062 67.1028125 24.25914062 67.1028125 24.125 66.1875 C23.96 64.888125 23.795 63.58875 23.625 62.25 C23.43550781 60.85587891 23.43550781 60.85587891 23.2421875 59.43359375 C22.54018886 49.84338656 25.37887496 42.83409566 29.42333984 34.24169922 C32.14557056 28.29160364 34.06960689 22.83174766 32.625 16.25 C30.04874606 13.02846965 28.45897079 12.38814863 24.41796875 11.71875 C14.63019615 11.80358443 5.99433065 13.49872582 -3.375 16.25 Z " fill="#FDD9A9" transform="translate(397.375,60.75)"/>
<path d="M0 0 C1.12873535 0.20882812 1.12873535 0.20882812 2.28027344 0.421875 C24.69244095 4.69651357 47.55116161 13.21292562 62.09765625 31.66015625 C71.0186479 44.82382757 72.49407454 58.42078889 71 74 C70.046875 77.390625 70.046875 77.390625 69 80 C68.62389552 81.45804888 68.24887093 82.9163768 67.875 84.375 C62.99415037 100.62822928 52.75798395 116.06505663 42 129 C41.58411621 129.50466797 41.16823242 130.00933594 40.73974609 130.52929688 C30.92751712 142.39396034 20.55146454 153.45627165 8.4609375 163.03515625 C6.33643009 164.73138995 4.3215034 166.48334188 2.3125 168.3125 C-25.85999794 193.04106532 -59.66556314 211.29169955 -93 228 C-94.43690186 228.72147217 -94.43690186 228.72147217 -95.90283203 229.45751953 C-128.4663857 245.68855573 -163.69927106 259.03859259 -199 268 C-199.81114258 268.21027832 -200.62228516 268.42055664 -201.45800781 268.63720703 C-232.00367603 276.49569903 -264.3704827 282.51235726 -296 283 C-297.21478027 283.02046387 -298.42956055 283.04092773 -299.68115234 283.06201172 C-321.83159376 283.39703721 -342.36888856 282.21170638 -364 277 C-364.09869385 277.76699219 -364.1973877 278.53398437 -364.29907227 279.32421875 C-365.64787104 289.29794498 -367.47616576 299.14972244 -369.36932373 309.03186035 C-372.33174491 324.50747984 -375.20053535 339.9979636 -377.93359375 355.515625 C-378.05628317 356.21156265 -378.17897259 356.90750031 -378.30537987 357.62452698 C-379.5224531 364.53017064 -380.73449922 371.43665968 -381.93509388 378.34518814 C-382.49277073 381.54836254 -383.05559934 384.75063438 -383.6171875 387.953125 C-383.91205299 389.66607758 -383.91205299 389.66607758 -384.21287537 391.41363525 C-385.49496543 398.70080768 -387.10961514 405.8465878 -389 413 C-406.52334898 408.9358211 -424.1680895 398.24844605 -434 383 C-446.44155834 361.70005212 -440.54406042 336.50468291 -437.09314442 313.36416054 C-436.5348717 309.60067004 -435.99325403 305.83477493 -435.44915771 302.06921387 C-434.53515297 295.76100002 -433.60898197 289.45467033 -432.67480469 283.14941406 C-431.60083443 275.89983366 -430.5448031 268.64781561 -429.49857926 261.39418268 C-428.4826236 254.35235213 -427.45562404 247.31217709 -426.42314911 240.27275085 C-425.98779622 237.30390355 -425.55588487 234.33458744 -425.12683868 231.36482239 C-424.62034187 227.86333597 -424.10397601 224.36343322 -423.58045959 220.86445236 C-423.30301472 218.99560612 -423.03473464 217.12540616 -422.76690674 215.25515747 C-418.50841449 187.10878424 -405.10886722 163.92776545 -386.0859375 143.26953125 C-384.15845324 141.1723995 -382.29238643 139.03623645 -380.4375 136.875 C-360.53906122 114.08807818 -334.58151145 95.84136186 -309 80 C-308.20207031 79.50564453 -307.40414062 79.01128906 -306.58203125 78.50195312 C-290.82869397 68.81792486 -274.51990283 60.28031087 -258 52 C-257.04206543 51.51901855 -256.08413086 51.03803711 -255.09716797 50.54248047 C-201.73768162 23.94588223 -143.08772812 6.51991449 -84 -1 C-83.11344727 -1.11859375 -82.22689453 -1.2371875 -81.31347656 -1.359375 C-54.91059168 -4.79123934 -26.17066502 -5.04494747 0 0 Z M-78.54248047 15.69238281 C-81.09980155 16.01249254 -83.65948838 16.28567522 -86.22265625 16.5546875 C-109.73972651 19.16232115 -133.174276 24.38391286 -155.77978516 31.32666016 C-157.89216857 31.96729722 -160.0106809 32.57443075 -162.13671875 33.16796875 C-230.09320306 52.24232316 -296.58685584 85.66378783 -350 132 C-350.82886719 132.71542969 -351.65773438 133.43085938 -352.51171875 134.16796875 C-374.72735478 153.73976049 -402.21333925 181.26282417 -404.23828125 212.69921875 C-404.44551311 223.83520458 -403.41368659 232.28229418 -396.0625 241.1875 C-375.61786885 262.2324629 -343.39330166 265.74249475 -315.65625 266.1875 C-280.53411807 266.62259485 -246.06503487 262.77159628 -212 254 C-211.2177002 253.79858398 -210.43540039 253.59716797 -209.62939453 253.38964844 C-203.37274583 251.74501385 -197.18255545 249.90267373 -191 248 C-190.35550903 247.80170593 -189.71101807 247.60341187 -189.04699707 247.39910889 C-132.98386162 230.10275689 -77.69855446 206.67059068 -30 172 C-29.33709961 171.51966309 -28.67419922 171.03932617 -27.99121094 170.54443359 C-18.65493624 163.74456512 -9.69757874 156.5973524 -1 149 C-0.18660156 148.29875 0.62679688 147.5975 1.46484375 146.875 C23.60688135 127.42242787 50.24381131 100.94772852 54 70 C54.68436626 58.77376124 54.02027501 49.85707253 46.765625 40.96484375 C32.58320991 25.18220041 12.40330414 19.18502283 -8 16 C-9.26328125 15.79246094 -10.5265625 15.58492187 -11.828125 15.37109375 C-33.47210723 12.20784508 -56.90496329 12.9260618 -78.54248047 15.69238281 Z " fill="#FE9811" transform="translate(441,47)"/>
<path d="M0 0 C0.33 0 0.66 0 1 0 C1.02578125 1.01578125 1.0515625 2.0315625 1.078125 3.078125 C1.66287187 19.11074989 6.14723581 33.43873771 17.98046875 44.921875 C23.05086505 49.12177849 28.35883468 52.54652161 34.125 55.6875 C35.08055786 56.22165527 35.08055786 56.22165527 36.05541992 56.76660156 C43.30637268 60.57262693 51.1784702 62.68852171 59 65 C58.72289185 66.37599365 58.72289185 66.37599365 58.44018555 67.77978516 C53.24231556 93.67414141 48.51233679 119.64304218 43.94604492 145.65478516 C41.76264397 158.09120708 39.56527785 170.52478111 37.29296875 182.9453125 C37.09173904 184.05832733 36.89050934 185.17134216 36.68318176 186.31808472 C35.70117151 191.64522399 34.61342761 196.82728394 33 202 C16.42653325 198.45726878 -0.54218478 188.03261016 -10.50390625 174.3203125 C-24.50819582 152.60086601 -18.79197214 127.23532227 -15.16334724 103.11469316 C-14.61939638 99.47561913 -14.09367257 95.83390828 -13.5657959 92.19247437 C-12.56896397 85.33479596 -11.55637691 78.47954676 -10.53773069 71.62507856 C-9.37647345 63.80550652 -8.23337901 55.98331137 -7.09160519 48.16087461 C-4.74756047 32.10430268 -2.38137105 16.05107949 0 0 Z " fill="#F08600" transform="translate(19,258)"/>
<path d="M0 0 C2.33843683 0.9929077 4.51458731 2.13428537 6.71875 3.3984375 C7.51796875 3.85347656 8.3171875 4.30851562 9.140625 4.77734375 C9.74390625 5.12667969 10.3471875 5.47601563 10.96875 5.8359375 C10.96875 6.4959375 10.96875 7.1559375 10.96875 7.8359375 C8.921875 9.37890625 8.921875 9.37890625 6.21875 11.0234375 C5.33703125 11.57386719 4.4553125 12.12429687 3.546875 12.69140625 C0.96875 13.8359375 0.96875 13.8359375 -1.0625 13.671875 C-3.40093683 12.6789673 -5.57708731 11.53758963 -7.78125 10.2734375 C-8.58046875 9.81839844 -9.3796875 9.36335937 -10.203125 8.89453125 C-10.80640625 8.54519531 -11.4096875 8.19585937 -12.03125 7.8359375 C-12.03125 7.1759375 -12.03125 6.5159375 -12.03125 5.8359375 C-9.984375 4.29296875 -9.984375 4.29296875 -7.28125 2.6484375 C-6.39953125 2.09800781 -5.5178125 1.54757813 -4.609375 0.98046875 C-2.03125 -0.1640625 -2.03125 -0.1640625 0 0 Z " fill="#48A75B" transform="translate(340.03125,120.1640625)"/>
<path d="M0 0 C2.76636481 1.52851679 5.39674313 3.209435 8 5 C4.53928245 7.9517885 1.23243308 10.28901641 -3 12 C-6.31049034 11.53392683 -8.87357369 10.08721509 -11.75 8.4375 C-12.54921875 7.98246094 -13.3484375 7.52742187 -14.171875 7.05859375 C-15.07679688 6.53458984 -15.07679688 6.53458984 -16 6 C-11.38707616 0.85481572 -6.91980649 -2.21433808 0 0 Z " fill="#46A75B" transform="translate(265,234)"/>
<path d="M0 0 C2.73995223 1.56202884 5.38323431 3.24033871 8 5 C5.24828046 7.95555062 2.70111274 10.32568709 -1 12 C-6.59205036 12 -10.5478635 9.06225632 -15 6 C-10.85154575 1.37287795 -6.29840107 -2.39939088 0 0 Z " fill="#46A75B" transform="translate(150,199)"/>
<path d="M0 0 C3.80272784 1.57674081 7.15371323 3.77023892 10.5625 6.0625 C7.81078046 9.01805062 5.26361274 11.38818709 1.5625 13.0625 C-4.02955036 13.0625 -7.9853635 10.12475632 -12.4375 7.0625 C-9.04592051 3.48592526 -5.1038431 0.13086777 0 0 Z " fill="#46A75B" transform="translate(197.4375,144.9375)"/>
<path d="M0 0 C2.45703125 1.19140625 2.45703125 1.19140625 4.8125 2.5625 C5.60269531 3.01753906 6.39289063 3.47257812 7.20703125 3.94140625 C7.79871094 4.29074219 8.39039063 4.64007813 9 5 C6.03613831 8.11608419 3.00109613 10.37723784 -1 12 C-6.55555425 12.11820328 -10.57690077 9.04228399 -15 6 C-5.81104795 -1.61370312 -5.81104795 -1.61370312 0 0 Z " fill="#45A75B" transform="translate(408,109)"/>
<path d="M0 0 C0.68707031 0.37640625 1.37414062 0.7528125 2.08203125 1.140625 C3.12423828 1.68976563 3.12423828 1.68976563 4.1875 2.25 C5.89453125 3.390625 5.89453125 3.390625 6.89453125 5.390625 C0.55973721 9.41078276 0.55973721 9.41078276 -2.16796875 9.328125 C-2.80734375 9.01875 -3.44671875 8.709375 -4.10546875 8.390625 C-5.17796875 7.875 -6.25046875 7.359375 -7.35546875 6.828125 C-8.26296875 6.35375 -9.17046875 5.879375 -10.10546875 5.390625 C-3.9950393 -1.15626369 -3.9950393 -1.15626369 0 0 Z " fill="#4AA95C" transform="translate(276.10546875,182.609375)"/>
<path d="M0 0 C0.763125 0.45375 1.52625 0.9075 2.3125 1.375 C3.075625 1.74625 3.83875 2.1175 4.625 2.5 C5.181875 2.78875 5.73875 3.0775 6.3125 3.375 C5.3125 6.375 5.3125 6.375 2.5625 8.1875 C-0.6875 9.375 -0.6875 9.375 -3.3125 8.6875 C-4.09625 8.254375 -4.88 7.82125 -5.6875 7.375 C-6.450625 7.00375 -7.21375 6.6325 -8 6.25 C-8.8353125 5.816875 -8.8353125 5.816875 -9.6875 5.375 C-9.6875 4.715 -9.6875 4.055 -9.6875 3.375 C-3.42887931 -0.79741379 -3.42887931 -0.79741379 0 0 Z " fill="#49A85C" transform="translate(86.6875,220.625)"/>
<path d="M0 0 C0.66 0.33 1.32 0.66 2 1 C-7.9 10.9 -17.8 20.8 -28 31 C-28.66 30.67 -29.32 30.34 -30 30 C-20.38065521 19.54984223 -10.56746713 9.49420875 0 0 Z " fill="#F28E0B" transform="translate(81,164)"/>
<path d="M0 0 C2.3125 1.0625 2.3125 1.0625 4 2 C4 2.66 4 3.32 4 4 C1.10115909 6.30202072 -0.38887114 7.03666773 -4.125 6.8125 C-7 6 -7 6 -10 4 C-10 3.34 -10 2.68 -10 2 C-6.36899483 -0.80106113 -4.36316398 -1.45438799 0 0 Z " fill="#4EAA5E" transform="translate(264,131)"/>
<path d="M0 0 C2.3125 1.5625 2.3125 1.5625 4 3 C1.375 5.125 1.375 5.125 -2 7 C-5.02070001 6.36100577 -7.26327499 5.3683625 -10 4 C-9 1 -9 1 -7.25 -0.25 C-4.36980955 -1.21006348 -2.87462068 -0.93425172 0 0 Z " fill="#4CA95D" transform="translate(223,207)"/>
<path d="M0 0 C1.98033528 0.92415647 3.94829235 1.84283519 5.875 2.875 C5.875 3.535 5.875 4.195 5.875 4.875 C3.23720355 6.90987154 1.68536027 7.91452977 -1.6875 7.75 C-4.27805206 6.82005824 -6.03812083 5.65271189 -8.125 3.875 C-2.74318182 -0.16136364 -2.74318182 -0.16136364 0 0 Z " fill="#4AA95C" transform="translate(386.125,157.125)"/>
<path d="M0 0 C0.99 0.66 1.98 1.32 3 2 C2 5 2 5 0.25 6.25 C-2.59317622 7.19772541 -4.15692068 6.87479364 -7 6 C-7.99 5.34 -8.98 4.68 -10 4 C-10 3.34 -10 2.68 -10 2 C-6.3897284 -0.78506667 -4.34373955 -1.48601616 0 0 Z " fill="#49A85C" transform="translate(323,95)"/>
<path d="M0 0 C2.375 1.25 2.375 1.25 4.375 3.25 C2.25 4.875 2.25 4.875 -0.625 6.25 C-3.9375 5.4375 -3.9375 5.4375 -6.625 4.25 C-6.625 3.26 -6.625 2.27 -6.625 1.25 C-4.00244032 -0.49837312 -3.10272901 -0.886494 0 0 Z " fill="#51AB5E" transform="translate(170.625,249.75)"/>
<path d="M0 0 C0.33 0.99 0.66 1.98 1 3 C-2.96 4.98 -2.96 4.98 -7 7 C-5.66667905 3.00003714 -3.5042173 2.16217663 0 0 Z " fill="#F2E497" transform="translate(191,145)"/>
</svg>
